<mxfile host="app.diagrams.net" modified="2020-08-24T13:01:23.259Z" agent="5.0 (Macintosh; Intel Mac OS X 10_15_6) AppleWebKit/537.36 (KHTML, like Gecko) Chrome/84.0.4147.125 Safari/537.36" etag="67JnBl_oYntCeR4L00xI" version="13.6.4" type="github">
  <diagram name="Page-1" id="0783ab3e-0a74-02c8-0abd-f7b4e66b4bec">
    <mxGraphModel dx="946" dy="623" grid="1" gridSize="10" guides="1" tooltips="1" connect="1" arrows="1" fold="1" page="1" pageScale="1" pageWidth="850" pageHeight="1100" background="#ffffff" math="0" shadow="0">
      <root>
        <mxCell id="0" />
        <mxCell id="1" parent="0" />
        <mxCell id="oB7Gcxh2frjxIkwhIaY--1" value="Note" style="shape=note;whiteSpace=wrap;html=1;rounded=0;shadow=0;comic=0;labelBackgroundColor=none;strokeWidth=1;fontFamily=Verdana;fontSize=12;align=center;size=20;" vertex="1" parent="1">
          <mxGeometry x="620" y="90" width="85" height="42" as="geometry" />
        </mxCell>
        <mxCell id="oB7Gcxh2frjxIkwhIaY--2" value="Object" style="rounded=0;whiteSpace=wrap;html=1;shadow=0;comic=0;labelBackgroundColor=none;strokeWidth=1;fontFamily=Verdana;fontSize=12;align=center;arcSize=50;" vertex="1" parent="1">
          <mxGeometry x="650" y="210" width="70" height="30" as="geometry" />
        </mxCell>
        <mxCell id="oB7Gcxh2frjxIkwhIaY--3" value="Action" style="rounded=1;whiteSpace=wrap;html=1;shadow=0;comic=0;labelBackgroundColor=none;strokeWidth=1;fontFamily=Verdana;fontSize=12;align=center;arcSize=50;" vertex="1" parent="1">
          <mxGeometry x="650" y="320" width="100" height="30" as="geometry" />
        </mxCell>
        <mxCell id="oB7Gcxh2frjxIkwhIaY--5" style="edgeStyle=none;rounded=0;html=1;labelBackgroundColor=none;startArrow=none;startFill=0;startSize=5;endArrow=oval;endFill=0;endSize=5;jettySize=auto;orthogonalLoop=1;strokeWidth=1;fontFamily=Verdana;fontSize=12;dashed=1;entryX=0.435;entryY=0.976;entryDx=0;entryDy=0;entryPerimeter=0;" edge="1" parent="1" source="oB7Gcxh2frjxIkwhIaY--2" target="oB7Gcxh2frjxIkwhIaY--1">
          <mxGeometry relative="1" as="geometry">
            <mxPoint x="139.625" y="324" as="sourcePoint" />
            <mxPoint x="170.625" y="300" as="targetPoint" />
          </mxGeometry>
        </mxCell>
        <mxCell id="1c1d494c118603dd-34" style="edgeStyle=none;rounded=0;html=1;labelBackgroundColor=none;startArrow=none;startFill=0;startSize=5;endArrow=classicThin;endFill=1;endSize=5;jettySize=auto;orthogonalLoop=1;strokeWidth=1;fontFamily=Verdana;fontSize=12;exitX=0.5;exitY=1;exitDx=0;exitDy=0;" parent="1" source="oB7Gcxh2frjxIkwhIaY--2" target="oB7Gcxh2frjxIkwhIaY--3" edge="1">
          <mxGeometry relative="1" as="geometry" />
        </mxCell>
        <mxCell id="1c1d494c118603dd-16" value="Action" style="rounded=1;whiteSpace=wrap;html=1;shadow=0;comic=0;labelBackgroundColor=none;strokeWidth=1;fontFamily=Verdana;fontSize=12;align=center;arcSize=50;" parent="1" vertex="1">
          <mxGeometry x="660" y="420" width="100" height="30" as="geometry" />
        </mxCell>
        <mxCell id="1c1d494c118603dd-41" style="edgeStyle=none;rounded=0;html=1;labelBackgroundColor=none;startArrow=none;startFill=0;startSize=5;endArrow=classicThin;endFill=1;endSize=5;jettySize=auto;orthogonalLoop=1;strokeWidth=1;fontFamily=Verdana;fontSize=12;exitX=0.5;exitY=1;exitDx=0;exitDy=0;" parent="1" source="oB7Gcxh2frjxIkwhIaY--3" target="1c1d494c118603dd-16" edge="1">
          <mxGeometry relative="1" as="geometry" />
        </mxCell>
        <mxCell id="oB7Gcxh2frjxIkwhIaY--6" value="" style="whiteSpace=wrap;html=1;rounded=0;shadow=0;comic=0;labelBackgroundColor=none;strokeWidth=1;fillColor=#000000;fontFamily=Verdana;fontSize=12;align=center;rotation=0;" vertex="1" parent="1">
          <mxGeometry x="670" y="540" width="147" height="10" as="geometry" />
        </mxCell>
        <mxCell id="1c1d494c118603dd-31" style="edgeStyle=orthogonalEdgeStyle;rounded=0;html=1;entryX=0.5;entryY=0;labelBackgroundColor=none;startArrow=none;startFill=0;startSize=5;endArrow=classicThin;endFill=1;endSize=5;jettySize=auto;orthogonalLoop=1;strokeWidth=1;fontFamily=Verdana;fontSize=12;entryDx=0;entryDy=0;" parent="1" source="1c1d494c118603dd-16" target="oB7Gcxh2frjxIkwhIaY--6" edge="1">
          <mxGeometry relative="1" as="geometry">
            <mxPoint x="505" y="415" as="sourcePoint" />
            <Array as="points">
              <mxPoint x="647" y="435" />
            </Array>
          </mxGeometry>
        </mxCell>
        <mxCell id="1c1d494c118603dd-1" value="框架初始化" style="swimlane;html=1;childLayout=stackLayout;startSize=20;rounded=0;shadow=0;comic=0;labelBackgroundColor=none;strokeWidth=1;fontFamily=Verdana;fontSize=12;align=center;fillColor=#dae8fc;strokeColor=#6c8ebf;" parent="1" vertex="1">
          <mxGeometry x="30" y="20" width="590" height="670" as="geometry" />
        </mxCell>
        <mxCell id="1c1d494c118603dd-2" value="业务" style="swimlane;html=1;startSize=20;fillColor=#f5f5f5;strokeColor=#666666;fontColor=#333333;" parent="1c1d494c118603dd-1" vertex="1">
          <mxGeometry y="20" width="310" height="650" as="geometry" />
        </mxCell>
        <mxCell id="oB7Gcxh2frjxIkwhIaY--10" style="edgeStyle=orthogonalEdgeStyle;rounded=0;orthogonalLoop=1;jettySize=auto;html=1;" edge="1" parent="1c1d494c118603dd-2" source="60571a20871a0731-4" target="oB7Gcxh2frjxIkwhIaY--9">
          <mxGeometry relative="1" as="geometry" />
        </mxCell>
        <mxCell id="oB7Gcxh2frjxIkwhIaY--13" value="Note" style="shape=note;whiteSpace=wrap;html=1;rounded=0;shadow=0;comic=0;labelBackgroundColor=none;strokeWidth=1;fontFamily=Verdana;fontSize=12;align=center;size=20;" vertex="1" parent="1c1d494c118603dd-2">
          <mxGeometry x="-10" y="120" width="85" height="42" as="geometry" />
        </mxCell>
        <mxCell id="oB7Gcxh2frjxIkwhIaY--11" value="加载模块配置" style="rounded=0;whiteSpace=wrap;html=1;shadow=0;comic=0;labelBackgroundColor=none;strokeWidth=1;fontFamily=Verdana;fontSize=12;align=center;arcSize=50;" vertex="1" parent="1c1d494c118603dd-2">
          <mxGeometry x="70" y="190" width="90" height="30" as="geometry" />
        </mxCell>
        <mxCell id="60571a20871a0731-4" value="" style="ellipse;whiteSpace=wrap;html=1;rounded=0;shadow=0;comic=0;labelBackgroundColor=none;strokeWidth=1;fillColor=#000000;fontFamily=Verdana;fontSize=12;align=center;" parent="1c1d494c118603dd-2" vertex="1">
          <mxGeometry x="100" y="50" width="30" height="30" as="geometry" />
        </mxCell>
        <mxCell id="oB7Gcxh2frjxIkwhIaY--12" style="edgeStyle=orthogonalEdgeStyle;rounded=0;orthogonalLoop=1;jettySize=auto;html=1;" edge="1" parent="1c1d494c118603dd-2" source="oB7Gcxh2frjxIkwhIaY--9" target="oB7Gcxh2frjxIkwhIaY--11">
          <mxGeometry relative="1" as="geometry" />
        </mxCell>
        <mxCell id="oB7Gcxh2frjxIkwhIaY--9" value="生成业务模块加载器loader" style="rounded=0;whiteSpace=wrap;html=1;shadow=0;comic=0;labelBackgroundColor=none;strokeWidth=1;fontFamily=Verdana;fontSize=12;align=center;arcSize=50;" vertex="1" parent="1c1d494c118603dd-2">
          <mxGeometry x="70" y="120" width="90" height="30" as="geometry" />
        </mxCell>
        <mxCell id="1c1d494c118603dd-3" value="框架" style="swimlane;html=1;startSize=20;fillColor=#f5f5f5;strokeColor=#666666;fontColor=#333333;" parent="1c1d494c118603dd-1" vertex="1">
          <mxGeometry x="310" y="20" width="280" height="650" as="geometry" />
        </mxCell>
      </root>
    </mxGraphModel>
  </diagram>
</mxfile>
